<svg width="40" height="24" viewBox="0 0 40 24" fill="none" xmlns="http://www.w3.org/2000/svg">
<path d="M35 6.43333V18.5667C35 18.6816 34.8911 18.7918 34.6973 18.8731C34.5036 18.9543 34.2407 19 33.9667 19H5.03333C4.75928 19 4.49644 18.9543 4.30266 18.8731C4.10887 18.7918 4 18.6816 4 18.5667V6.43333C4 6.31841 4.10887 6.20819 4.30266 6.12692C4.49644 6.04565 4.75928 6 5.03333 6H33.9667C34.2407 6 34.5036 6.04565 34.6973 6.12692C34.8911 6.20819 35 6.31841 35 6.43333Z" stroke="#241C15" stroke-width="1.5" stroke-linecap="round" stroke-linejoin="round"/>
<path d="M14.3335 12.5H19.5002H24.6668" stroke="#241C15" stroke-width="3" stroke-linecap="round" stroke-linejoin="round"/>
</svg>
