<svg width="40" height="24" viewBox="0 0 40 24" fill="none" xmlns="http://www.w3.org/2000/svg">
<path d="M32 3.6V20.4C32 20.5591 31.9122 20.7117 31.7559 20.8243C31.5996 20.9368 31.3877 21 31.1667 21H7.83333C7.61232 21 7.40036 20.9368 7.24408 20.8243C7.0878 20.7117 7 20.5591 7 20.4V3.6C7 3.44087 7.0878 3.28826 7.24408 3.17574C7.40036 3.06321 7.61232 3 7.83333 3H31.1667C31.3877 3 31.5996 3.06321 31.7559 3.17574C31.9122 3.28826 32 3.44087 32 3.6Z" stroke="#241C15" stroke-width="1.5" stroke-linecap="round" stroke-linejoin="round"/>
<path d="M7.5 16.0002L17 13.0002L31.5 18.5002M25.9142 10.0859C25.3838 10.0859 24.8751 9.87519 24.5 9.50012C24.1249 9.12505 23.9142 8.61634 23.9142 8.08591C23.9142 7.55548 24.1249 7.04677 24.5 6.6717C24.8751 6.29662 25.3838 6.08591 25.9142 6.08591C26.4446 6.08591 26.9534 6.29662 27.3284 6.6717C27.7035 7.04677 27.9142 7.55548 27.9142 8.08591C27.9142 8.61634 27.7035 9.12505 27.3284 9.50012C26.9534 9.87519 26.4446 10.0859 25.9142 10.0859Z" stroke="#241C15" stroke-width="1.5" stroke-linecap="round" stroke-linejoin="round"/>
</svg>
