<svg width="40" height="24" viewBox="0 0 40 24" fill="none" xmlns="http://www.w3.org/2000/svg">
<path d="M29 7.35296V16.647C29.0001 16.7541 28.9714 16.8593 28.9171 16.9516C28.8627 17.0439 28.7847 17.12 28.691 17.172L20.291 21.838C20.202 21.8873 20.1018 21.9133 20 21.9133C19.8982 21.9133 19.798 21.8873 19.709 21.838L11.309 17.172C11.2153 17.12 11.1373 17.0439 11.0829 16.9516C11.0286 16.8593 10.9999 16.7541 11 16.647V7.35296C11.0001 7.24601 11.0288 7.14103 11.0832 7.0489C11.1375 6.95677 11.2155 6.88083 11.309 6.82896L19.709 2.16196C19.798 2.11258 19.8982 2.08667 20 2.08667C20.1018 2.08667 20.202 2.11258 20.291 2.16196L28.691 6.82896C28.7845 6.88083 28.8625 6.95677 28.9168 7.0489C28.9712 7.14103 28.9999 7.24601 29 7.35296Z" stroke="#241C15" stroke-width="1.5" stroke-linecap="round" stroke-linejoin="round"/>
<path d="M16.4326 15L19.0396 6.86H20.9536L23.5606 15H21.8556L20.6896 10.765C20.4476 9.918 20.2166 8.972 19.9856 8.103H19.9416C19.7216 8.983 19.4906 9.918 19.2486 10.765L18.0826 15H16.4326ZM18.0496 12.91V11.656H21.9216V12.91H18.0496Z" fill="#241C15"/>
</svg>
