<svg width="40" height="24" viewBox="0 0 40 24" fill="none" xmlns="http://www.w3.org/2000/svg">
<path d="M26 22C26.7956 22 27.5587 21.6839 28.1213 21.1213C28.6839 20.5587 29 19.7956 29 19C29 18.2044 28.6839 17.4413 28.1213 16.8787C27.5587 16.3161 26.7956 16 26 16C25.2044 16 24.4413 16.3161 23.8787 16.8787C23.3161 17.4413 23 18.2044 23 19C23 19.7956 23.3161 20.5587 23.8787 21.1213C24.4413 21.6839 25.2044 22 26 22ZM26 8C26.7956 8 27.5587 7.68393 28.1213 7.12132C28.6839 6.55871 29 5.79565 29 5C29 4.20435 28.6839 3.44129 28.1213 2.87868C27.5587 2.31607 26.7956 2 26 2C25.2044 2 24.4413 2.31607 23.8787 2.87868C23.3161 3.44129 23 4.20435 23 5C23 5.79565 23.3161 6.55871 23.8787 7.12132C24.4413 7.68393 25.2044 8 26 8ZM14 15C14.7956 15 15.5587 14.6839 16.1213 14.1213C16.6839 13.5587 17 12.7956 17 12C17 11.2044 16.6839 10.4413 16.1213 9.87868C15.5587 9.31607 14.7956 9 14 9C13.2044 9 12.4413 9.31607 11.8787 9.87868C11.3161 10.4413 11 11.2044 11 12C11 12.7956 11.3161 13.5587 11.8787 14.1213C12.4413 14.6839 13.2044 15 14 15Z" stroke="#241C15" stroke-width="1.5" stroke-linecap="round" stroke-linejoin="round"/>
<path d="M23.5 6.5L16.5 10.5M16.5 13.5L23.5 17.5" stroke="#241C15" stroke-width="1.5"/>
</svg>
