<svg width="40" height="24" viewBox="0 0 40 24" fill="none" xmlns="http://www.w3.org/2000/svg">
<path d="M29 3.6V20.4C29 20.5591 28.9368 20.7117 28.8243 20.8243C28.7117 20.9368 28.5591 21 28.4 21H11.6C11.4409 21 11.2883 20.9368 11.1757 20.8243C11.0632 20.7117 11 20.5591 11 20.4V3.6C11 3.44087 11.0632 3.28826 11.1757 3.17574C11.2883 3.06321 11.4409 3 11.6 3H28.4C28.5591 3 28.7117 3.06321 28.8243 3.17574C28.9368 3.28826 29 3.44087 29 3.6Z" stroke="#241C15" stroke-width="1.5" stroke-linecap="round" stroke-linejoin="round"/>
<path d="M17.898 8.51307C17.8068 8.46089 17.7035 8.43357 17.5985 8.43384C17.4934 8.43411 17.3903 8.46196 17.2993 8.51461C17.2084 8.56726 17.1329 8.64285 17.0804 8.73384C17.0279 8.82483 17.0001 8.92801 17 9.03307V14.9661C17 15.0712 17.0275 15.1745 17.08 15.2657C17.1325 15.3568 17.208 15.4325 17.2989 15.4853C17.3898 15.5381 17.4931 15.566 17.5982 15.5663C17.7034 15.5666 17.8067 15.5393 17.898 15.4871L23.088 12.5211C23.1799 12.4686 23.2562 12.3928 23.3093 12.3013C23.3624 12.2098 23.3904 12.1059 23.3904 12.0001C23.3904 11.8943 23.3624 11.7904 23.3093 11.6989C23.2562 11.6074 23.1799 11.5315 23.088 11.4791L17.898 8.51307Z" stroke="#241C15" stroke-width="1.5" stroke-linecap="round" stroke-linejoin="round"/>
</svg>
